<svg xmlns="http://www.w3.org/2000/svg" width="183.119" height="110.624" viewBox="0 0 183.119 110.624">
  <g id="Grupo_314" data-name="Grupo 314" transform="translate(-139 -4627)">
    <g id="Grupo_26" data-name="Grupo 26" transform="translate(-178.487 4298.133)">
      <path id="Trazado_25" data-name="Trazado 25" d="M502.617,434.773l4.338-3.874,4.337,3.874-4.337,3.87Z" transform="translate(-10.686 -5.89)" fill="#ed6a00"/>
      <g id="Grupo_23" data-name="Grupo 23" transform="translate(318.175 328.867)">
        <path id="Trazado_26" data-name="Trazado 26" d="M338.334,328.867l-1.969,2.614a18.916,18.916,0,0,0-8.486-1.894h-4.092v14.622h2.122a62.306,62.306,0,0,0,7.577-.377v1.477a61.845,61.845,0,0,0-7.577-.38h-2.122v6.441a58.785,58.785,0,0,0,.416,7.8h-5.985a65.927,65.927,0,0,0,.417-7.8v-14.7a65.907,65.907,0,0,0-.417-7.8Z" transform="translate(-318.217 -328.867)" fill="#c9c3be"/>
        <path id="Trazado_27" data-name="Trazado 27" d="M337.514,350.82c0-6.1,4.774-9.811,11.327-9.811,6.517,0,11.328,3.712,11.328,9.811s-4.811,9.814-11.328,9.814C342.288,360.634,337.514,356.92,337.514,350.82Zm17.692,0c0-5.721-2.16-9.091-6.365-9.091-4.243,0-6.4,3.37-6.4,9.091,0,5.759,2.159,9.094,6.4,9.094C353.046,359.914,355.206,356.579,355.206,350.82Z" transform="translate(-319.331 -329.568)" fill="#c9c3be"/>
        <path id="Trazado_28" data-name="Trazado 28" d="M376.992,344.569c-1.97-.646-3.334-.456-6.97,3.447v4.47a58.552,58.552,0,0,0,.34,7.425h-5.229a52.492,52.492,0,0,0,.38-7.425v-3.222a52.979,52.979,0,0,0-.38-7.461h5.229c-.226,2.046-.3,3.6-.34,5.151,2.88-3.334,5.228-6.023,10.078-5.151C380.552,343.924,379.3,345.364,376.992,344.569Z" transform="translate(-320.925 -329.604)" fill="#c9c3be"/>
        <path id="Trazado_29" data-name="Trazado 29" d="M397.978,351.707c-.947,6.744-2.841,8.676-6.023,8.676-3.485,0-5-1.933-5-6.441v-11.9h-4.091v-.718h.531c5.151,0,4.963-3.752,4.963-7.956h3.864c0,3.181-.682,6.515-4.357,7.956h9.055v.718h-5.456v12.541c0,3.485.681,4.585,2.083,4.585,1.7,0,2.993-1.971,3.789-7.464Z" transform="translate(-321.949 -329.127)" fill="#c9c3be"/>
        <path id="Trazado_30" data-name="Trazado 30" d="M402.562,358.8l2.676-2.715,2.715,2.715-5.107,8.8-.284-.286,2.676-5.835Z" transform="translate(-323.086 -330.438)" fill="#c9c3be"/>
      </g>
      <g id="Grupo_24" data-name="Grupo 24" transform="translate(318.175 365.666)">
        <path id="Trazado_31" data-name="Trazado 31" d="M341.024,389.818c0,6.476-5.494,8.409-11.972,8.409H318.217a75.514,75.514,0,0,0,.34-7.8v-14.7a75.537,75.537,0,0,0-.34-7.8h10.267c5.19,0,10.418.909,10.418,6.782,0,3.6-2.007,5.682-6.554,6.44C337.2,381.975,341.024,384.4,341.024,389.818Zm-17.275-9.055h3.143c4.924,0,6.743-2.122,6.743-6.062,0-4.66-3.749-6.062-7.084-6.062h-2.8Zm11.63,9.055c0-6.82-4.887-8.335-8.107-8.335h-3.522v16.024h3.182C331.439,397.508,335.379,395.539,335.379,389.818Z" transform="translate(-318.217 -367.92)" fill="#c9c3be"/>
        <path id="Trazado_32" data-name="Trazado 32" d="M366.9,392c-1.364,4.7-4.357,7.691-9.622,7.691-5.911,0-10.76-3.562-10.76-9.814,0-6.212,4.963-9.811,10.38-9.811,5.721,0,9.017,3.637,9.054,7.692H351.52c-.038.566-.076,1.135-.076,1.779,0,4.81,2.425,8.942,7.236,8.942,3.485,0,6.251-2.2,7.578-6.479ZM351.6,387.033h9.586c0-3.636-1.327-6.251-4.357-6.251C354.058,380.782,352.126,382.941,351.6,387.033Z" transform="translate(-319.851 -368.621)" fill="#c9c3be"/>
        <path id="Trazado_33" data-name="Trazado 33" d="M383.383,383.622c-1.97-.645-3.334-.456-6.971,3.447v4.47a58.4,58.4,0,0,0,.341,7.425h-5.229a52.5,52.5,0,0,0,.38-7.425v-3.222a52.981,52.981,0,0,0-.38-7.461h5.229c-.227,2.046-.3,3.6-.341,5.151,2.88-3.334,5.228-6.023,10.077-5.151C386.943,382.977,385.694,384.417,383.383,383.622Z" transform="translate(-321.294 -368.657)" fill="#c9c3be"/>
        <path id="Trazado_34" data-name="Trazado 34" d="M404.664,390.76c-.947,6.744-2.841,8.676-6.023,8.676-3.486,0-5-1.933-5-6.441V381.1h-4.092v-.718h.531c5.152,0,4.964-3.752,4.964-7.958h3.863c0,3.183-.681,6.517-4.357,7.958H403.6v.718h-5.456v12.541c0,3.486.682,4.585,2.084,4.585,1.7,0,2.992-1.971,3.788-7.464Z" transform="translate(-322.334 -368.18)" fill="#c9c3be"/>
        <path id="Trazado_35" data-name="Trazado 35" d="M408.735,389.873c0-6.1,4.774-9.811,11.327-9.811,6.516,0,11.327,3.714,11.327,9.811s-4.811,9.814-11.327,9.814C413.509,399.687,408.735,395.973,408.735,389.873Zm17.692,0c0-5.721-2.161-9.091-6.365-9.091-4.243,0-6.4,3.37-6.4,9.091,0,5.759,2.16,9.094,6.4,9.094C424.267,398.967,426.427,395.632,426.427,389.873Z" transform="translate(-323.442 -368.621)" fill="#c9c3be"/>
        <path id="Trazado_36" data-name="Trazado 36" d="M448,383.622c-1.969-.645-3.333-.456-6.97,3.447v4.47a58.4,58.4,0,0,0,.341,7.425h-5.229a52.631,52.631,0,0,0,.379-7.425v-3.222a53.117,53.117,0,0,0-.379-7.461h5.229c-.227,2.046-.3,3.6-.341,5.151,2.88-3.334,5.228-6.023,10.077-5.151C451.562,382.977,450.313,384.417,448,383.622Z" transform="translate(-325.024 -368.657)" fill="#c9c3be"/>
        <path id="Trazado_37" data-name="Trazado 37" d="M455.28,373.134l3.183-2.842,3.182,2.842-3.182,2.84Zm5.8,7.123a58.927,58.927,0,0,0-.341,7.461v3.222a58.387,58.387,0,0,0,.341,7.425h-5.227a52.757,52.757,0,0,0,.378-7.425v-3.222a53.245,53.245,0,0,0-.378-7.461Z" transform="translate(-326.129 -368.057)" fill="#c9c3be"/>
        <path id="Trazado_38" data-name="Trazado 38" d="M481.276,391.275v-5.341c0-3.03-.947-4.66-3.106-4.66-2.654,0-4.623,2.311-5.911,4.888V391.5a58.387,58.387,0,0,0,.341,7.425h-5.229a52.5,52.5,0,0,0,.38-7.425v-3.222a52.982,52.982,0,0,0-.38-7.461H472.6c-.189,1.59-.265,2.879-.3,4.09,1.364-2.463,3.751-4.849,7.539-4.849s5.949,2.083,5.949,7.348v3.865a66.949,66.949,0,0,0,.341,7.653H480.9A60.341,60.341,0,0,0,481.276,391.275Z" transform="translate(-326.827 -368.621)" fill="#c9c3be"/>
        <path id="Trazado_39" data-name="Trazado 39" d="M491.594,373.134l3.183-2.842,3.182,2.842-3.182,2.84Zm5.8,7.123a59.094,59.094,0,0,0-.34,7.461v3.222a58.553,58.553,0,0,0,.34,7.425h-5.227a52.757,52.757,0,0,0,.378-7.425v-3.222a53.245,53.245,0,0,0-.378-7.461Z" transform="translate(-328.225 -368.057)" fill="#c9c3be"/>
      </g>
      <g id="Grupo_25" data-name="Grupo 25" transform="translate(317.487 401.68)">
        <path id="Trazado_40" data-name="Trazado 40" d="M348.781,431.6c-.607,5.154-4.092,6.366-6.744,6.366a9.175,9.175,0,0,1-5.266-1.781,13.046,13.046,0,0,1-6.819,1.781c-6.553,0-12.464-2.652-12.464-8.753,0-4.432,2.88-6.667,6.366-8.525-1.63-2.839-2.8-5.682-2.8-7.992,0-3.335,2.008-6.556,7.615-6.556,4.7,0,7.16,2.5,7.16,5.647,0,4.016-3.031,5.984-7.085,8.106-.454.228-.871.454-1.249.682a84.935,84.935,0,0,0,5.115,7.576c1.666,2.235,3.143,4.283,4.546,5.836,2.538-3.335,2.652-8.64-.114-13.149l3.9-2.46c2.766,6.592,1.516,13.146-2.727,16.744,1.4,1.325,2.69,2.122,4.015,2.122,2.274,0,3.562-2.425,2.729-7.389Zm-13.07,3.864a40.46,40.46,0,0,1-5.8-6.023,78.587,78.587,0,0,1-5.038-7.045,8.4,8.4,0,0,0-3.107,6.705c0,4.772,3.258,8.145,8.372,8.145A8.9,8.9,0,0,0,335.711,435.464Zm-8.98-16.214a4.76,4.76,0,0,0,.645-.3c4.319-2.271,5.152-4.962,5.152-7.577,0-2.424-1.06-4.508-3.864-4.508s-4.357,2.083-4.357,5.077C324.306,414.06,325.292,416.636,326.731,419.25Z" transform="translate(-317.487 -406.14)" fill="#c9c3be"/>
        <path id="Trazado_41" data-name="Trazado 41" d="M392.7,422.62v6.213a67.52,67.52,0,0,0,.455,8.373h-1.97a67.149,67.149,0,0,0,.455-8.373v-1.515c-1.478,6.553-5.3,10.647-12.237,10.647-9.017,0-15.04-6.859-15.04-16.29s6.895-15.535,15.495-15.535c6.251,0,10.418,3.26,12.995,8.261l-5,1.363c-1.023-4.888-3.372-8.9-7.993-8.9-6.176,0-9.888,6.479-9.888,14.473,0,8.181,3.713,15,10.987,15,6.44,0,10.3-5.266,10.684-13.715h-1.553a18.657,18.657,0,0,0-8.486,1.933l-1.971-2.652H395.77v.72Z" transform="translate(-320.193 -406.14)" fill="#c9c3be"/>
        <path id="Trazado_42" data-name="Trazado 42" d="M399.782,428.9c0-6.1,4.774-9.811,11.327-9.811,6.517,0,11.328,3.714,11.328,9.811s-4.811,9.814-11.328,9.814C404.556,438.713,399.782,435,399.782,428.9Zm17.693,0c0-5.721-2.161-9.091-6.366-9.091-4.243,0-6.4,3.37-6.4,9.091,0,5.759,2.159,9.094,6.4,9.094C415.314,437.993,417.475,434.658,417.475,428.9Z" transform="translate(-322.237 -406.887)" fill="#c9c3be"/>
        <path id="Trazado_43" data-name="Trazado 43" d="M444.5,437.253a36.62,36.62,0,0,1-.378-4.737,7.247,7.247,0,0,1-7.426,5.5c-4.773,0-9.13-3.144-9.13-9.814s4.584-9.811,8.789-9.811a9.908,9.908,0,0,1,7.767,3.9V414.6a50.3,50.3,0,0,0-.455-7.653h4.964v22.882a35.051,35.051,0,0,0,.606,7.425Zm-.378-8.486v-5.492c-1.553-2.046-3.9-3.827-6.365-3.827-3.221,0-5.266,3.144-5.266,8.75,0,4.737,1.628,8.6,5.721,8.6C441.806,436.8,444.118,433.693,444.118,428.767Z" transform="translate(-323.841 -406.186)" fill="#c9c3be"/>
        <path id="Trazado_44" data-name="Trazado 44" d="M454.538,428.9c0-6.1,4.774-9.811,11.327-9.811,6.517,0,11.328,3.714,11.328,9.811s-4.811,9.814-11.328,9.814C459.312,438.713,454.538,435,454.538,428.9Zm17.693,0c0-5.721-2.16-9.091-6.366-9.091-4.243,0-6.4,3.37-6.4,9.091,0,5.759,2.159,9.094,6.4,9.094C470.071,437.993,472.231,434.658,472.231,428.9Z" transform="translate(-325.398 -406.887)" fill="#c9c3be"/>
        <path id="Trazado_45" data-name="Trazado 45" d="M499.165,419.893a17.458,17.458,0,0,0-1.212,2.955L492.649,438c-1.629,4.66-3.486,6.744-6.895,6.744a8.133,8.133,0,0,1-5.267-1.856,1.74,1.74,0,0,1,3.335-.987c.681,1.4,1.325,2.122,2.652,2.122,1.933,0,3.941-1.855,5.343-5.871l.037-.152h-4.395l-5.835-15.153a14.222,14.222,0,0,0-1.477-2.955h5.645a11.874,11.874,0,0,0,.833,2.916l5.532,14.32,5.038-14.32a17.726,17.726,0,0,0,.758-2.916Z" transform="translate(-326.876 -406.934)" fill="#c9c3be"/>
      </g>
    </g>
  </g>
</svg>
