<svg xmlns="http://www.w3.org/2000/svg" width="138.776" height="930.441" viewBox="0 0 138.776 930.441">
  <g id="Grupo_189" data-name="Grupo 189" transform="translate(0 -3211.761)">
    <g id="Grupo_185" data-name="Grupo 185" transform="translate(138.776 4452) rotate(180)">
      <g id="Grupo_182" data-name="Grupo 182" transform="translate(69.522 620.238) rotate(180)">
        <path id="Trazado_122" data-name="Trazado 122" d="M69.521,31.044,34.761,0,0,31.044Z" transform="translate(0 248.352)" fill="#fff"/>
        <g id="Grupo_87" data-name="Grupo 87" transform="translate(0 248.353)">
          <path id="Trazado_123" data-name="Trazado 123" d="M0,0V31.044L34.761,0Z" transform="translate(0 0)" fill="#ef8000"/>
          <path id="Trazado_124" data-name="Trazado 124" d="M34.761,0V31.044L0,0Z" transform="translate(34.761 0)" fill="#ef8000"/>
        </g>
        <path id="Trazado_125" data-name="Trazado 125" d="M0,0,34.76,31.044,69.521,0Z" transform="translate(0 279.396)" fill="#ef8000"/>
        <g id="Grupo_89" data-name="Grupo 89" transform="translate(0 279.396)">
          <path id="Trazado_126" data-name="Trazado 126" d="M34.761,31.044V0L0,31.044Z" transform="translate(34.761)" fill="#fff"/>
          <path id="Trazado_127" data-name="Trazado 127" d="M0,31.044V0L34.761,31.044Z" fill="#fff"/>
        </g>
        <path id="Trazado_128" data-name="Trazado 128" d="M69.521,31.044,34.761,0,0,31.044Z" transform="translate(0 186.264)" fill="#fff"/>
        <g id="Grupo_91" data-name="Grupo 91" transform="translate(0 186.264)">
          <path id="Trazado_129" data-name="Trazado 129" d="M0,0V31.044L34.761,0Z" fill="#ef8000"/>
          <path id="Trazado_130" data-name="Trazado 130" d="M34.761,0V31.044L0,0Z" transform="translate(34.761)" fill="#ef8000"/>
        </g>
        <path id="Trazado_131" data-name="Trazado 131" d="M69.521,31.044,34.761,0,0,31.044Z" transform="translate(0 124.176)" fill="#fff"/>
        <g id="Grupo_93" data-name="Grupo 93" transform="translate(0 124.176)">
          <path id="Trazado_132" data-name="Trazado 132" d="M0,0V31.044L34.761,0Z" transform="translate(0 0)" fill="#ef8000"/>
          <path id="Trazado_133" data-name="Trazado 133" d="M34.761,0V31.044L0,0Z" transform="translate(34.761 0)" fill="#ef8000"/>
        </g>
        <path id="Trazado_134" data-name="Trazado 134" d="M0,0,34.76,31.044,69.521,0Z" transform="translate(0 155.22)" fill="#ef8000"/>
        <g id="Grupo_95" data-name="Grupo 95" transform="translate(0 155.22)">
          <path id="Trazado_135" data-name="Trazado 135" d="M34.761,31.044V0L0,31.044Z" transform="translate(34.761)" fill="#fff"/>
          <path id="Trazado_136" data-name="Trazado 136" d="M0,31.044V0L34.761,31.044Z" fill="#fff"/>
        </g>
        <path id="Trazado_137" data-name="Trazado 137" d="M0,0,34.76,31.044,69.521,0Z" transform="translate(0 217.308)" fill="#ef8000"/>
        <g id="Grupo_97" data-name="Grupo 97" transform="translate(0 217.308)">
          <path id="Trazado_138" data-name="Trazado 138" d="M34.761,31.044V0L0,31.044Z" transform="translate(34.761)" fill="#fff"/>
          <path id="Trazado_139" data-name="Trazado 139" d="M0,31.044V0L34.761,31.044Z" fill="#fff"/>
        </g>
        <path id="Trazado_140" data-name="Trazado 140" d="M69.521,31.044,34.761,0,0,31.044Z" transform="translate(0 62.088)" fill="#fff"/>
        <g id="Grupo_99" data-name="Grupo 99" transform="translate(0 62.088)">
          <path id="Trazado_141" data-name="Trazado 141" d="M0,0V31.044L34.761,0Z" fill="#ef8000"/>
          <path id="Trazado_142" data-name="Trazado 142" d="M34.761,0V31.044L0,0Z" transform="translate(34.761)" fill="#ef8000"/>
        </g>
        <path id="Trazado_143" data-name="Trazado 143" d="M69.521,31.044,34.761,0,0,31.044Z" transform="translate(0 0)" fill="#fff"/>
        <g id="Grupo_101" data-name="Grupo 101" transform="translate(0 0)">
          <path id="Trazado_144" data-name="Trazado 144" d="M0,0V31.044L34.761,0Z" fill="#ef8000"/>
          <path id="Trazado_145" data-name="Trazado 145" d="M34.761,0V31.044L0,0Z" transform="translate(34.761)" fill="#ef8000"/>
        </g>
        <path id="Trazado_146" data-name="Trazado 146" d="M0,0,34.76,31.044,69.521,0Z" transform="translate(0 31.044)" fill="#ef8000"/>
        <g id="Grupo_103" data-name="Grupo 103" transform="translate(0 31.044)">
          <path id="Trazado_147" data-name="Trazado 147" d="M34.761,31.044V0L0,31.044Z" transform="translate(34.761 0)" fill="#fff"/>
          <path id="Trazado_148" data-name="Trazado 148" d="M0,31.044V0L34.761,31.044Z" transform="translate(0 0)" fill="#fff"/>
        </g>
        <path id="Trazado_149" data-name="Trazado 149" d="M0,0,34.76,31.044,69.521,0Z" transform="translate(0 93.132)" fill="#ef8000"/>
        <g id="Grupo_105" data-name="Grupo 105" transform="translate(0 93.132)">
          <path id="Trazado_150" data-name="Trazado 150" d="M34.761,31.044V0L0,31.044Z" transform="translate(34.761)" fill="#fff"/>
          <path id="Trazado_151" data-name="Trazado 151" d="M0,31.044V0L34.761,31.044Z" fill="#fff"/>
        </g>
      </g>
    </g>
    <g id="Grupo_187" data-name="Grupo 187" transform="translate(138.776 3832) rotate(180)">
      <g id="Grupo_182-2" data-name="Grupo 182" transform="translate(69.522 620.238) rotate(180)">
        <path id="Trazado_122-2" data-name="Trazado 122" d="M69.521,31.044,34.761,0,0,31.044Z" transform="translate(0 248.352)" fill="#fff"/>
        <g id="Grupo_87-2" data-name="Grupo 87" transform="translate(0 248.353)">
          <path id="Trazado_123-2" data-name="Trazado 123" d="M0,0V31.044L34.761,0Z" transform="translate(0 0)" fill="#ef8000"/>
          <path id="Trazado_124-2" data-name="Trazado 124" d="M34.761,0V31.044L0,0Z" transform="translate(34.761 0)" fill="#ef8000"/>
        </g>
        <path id="Trazado_125-2" data-name="Trazado 125" d="M0,0,34.76,31.044,69.521,0Z" transform="translate(0 279.396)" fill="#ef8000"/>
        <g id="Grupo_89-2" data-name="Grupo 89" transform="translate(0 279.396)">
          <path id="Trazado_126-2" data-name="Trazado 126" d="M34.761,31.044V0L0,31.044Z" transform="translate(34.761)" fill="#fff"/>
          <path id="Trazado_127-2" data-name="Trazado 127" d="M0,31.044V0L34.761,31.044Z" fill="#fff"/>
        </g>
        <path id="Trazado_128-2" data-name="Trazado 128" d="M69.521,31.044,34.761,0,0,31.044Z" transform="translate(0 186.264)" fill="#fff"/>
        <g id="Grupo_91-2" data-name="Grupo 91" transform="translate(0 186.264)">
          <path id="Trazado_129-2" data-name="Trazado 129" d="M0,0V31.044L34.761,0Z" fill="#ef8000"/>
          <path id="Trazado_130-2" data-name="Trazado 130" d="M34.761,0V31.044L0,0Z" transform="translate(34.761)" fill="#ef8000"/>
        </g>
        <path id="Trazado_131-2" data-name="Trazado 131" d="M69.521,31.044,34.761,0,0,31.044Z" transform="translate(0 124.176)" fill="#fff"/>
        <g id="Grupo_93-2" data-name="Grupo 93" transform="translate(0 124.176)">
          <path id="Trazado_132-2" data-name="Trazado 132" d="M0,0V31.044L34.761,0Z" transform="translate(0 0)" fill="#ef8000"/>
          <path id="Trazado_133-2" data-name="Trazado 133" d="M34.761,0V31.044L0,0Z" transform="translate(34.761 0)" fill="#ef8000"/>
        </g>
        <path id="Trazado_134-2" data-name="Trazado 134" d="M0,0,34.76,31.044,69.521,0Z" transform="translate(0 155.22)" fill="#ef8000"/>
        <g id="Grupo_95-2" data-name="Grupo 95" transform="translate(0 155.22)">
          <path id="Trazado_135-2" data-name="Trazado 135" d="M34.761,31.044V0L0,31.044Z" transform="translate(34.761)" fill="#fff"/>
          <path id="Trazado_136-2" data-name="Trazado 136" d="M0,31.044V0L34.761,31.044Z" fill="#fff"/>
        </g>
        <path id="Trazado_137-2" data-name="Trazado 137" d="M0,0,34.76,31.044,69.521,0Z" transform="translate(0 217.308)" fill="#ef8000"/>
        <g id="Grupo_97-2" data-name="Grupo 97" transform="translate(0 217.308)">
          <path id="Trazado_138-2" data-name="Trazado 138" d="M34.761,31.044V0L0,31.044Z" transform="translate(34.761)" fill="#fff"/>
          <path id="Trazado_139-2" data-name="Trazado 139" d="M0,31.044V0L34.761,31.044Z" fill="#fff"/>
        </g>
        <path id="Trazado_140-2" data-name="Trazado 140" d="M69.521,31.044,34.761,0,0,31.044Z" transform="translate(0 62.088)" fill="#fff"/>
        <g id="Grupo_99-2" data-name="Grupo 99" transform="translate(0 62.088)">
          <path id="Trazado_141-2" data-name="Trazado 141" d="M0,0V31.044L34.761,0Z" fill="#ef8000"/>
          <path id="Trazado_142-2" data-name="Trazado 142" d="M34.761,0V31.044L0,0Z" transform="translate(34.761)" fill="#ef8000"/>
        </g>
        <path id="Trazado_143-2" data-name="Trazado 143" d="M69.521,31.044,34.761,0,0,31.044Z" transform="translate(0 0)" fill="#fff"/>
        <g id="Grupo_101-2" data-name="Grupo 101" transform="translate(0 0)">
          <path id="Trazado_144-2" data-name="Trazado 144" d="M0,0V31.044L34.761,0Z" fill="#ef8000"/>
          <path id="Trazado_145-2" data-name="Trazado 145" d="M34.761,0V31.044L0,0Z" transform="translate(34.761)" fill="#ef8000"/>
        </g>
        <path id="Trazado_146-2" data-name="Trazado 146" d="M0,0,34.76,31.044,69.521,0Z" transform="translate(0 31.044)" fill="#ef8000"/>
        <g id="Grupo_103-2" data-name="Grupo 103" transform="translate(0 31.044)">
          <path id="Trazado_147-2" data-name="Trazado 147" d="M34.761,31.044V0L0,31.044Z" transform="translate(34.761 0)" fill="#fff"/>
          <path id="Trazado_148-2" data-name="Trazado 148" d="M0,31.044V0L34.761,31.044Z" transform="translate(0 0)" fill="#fff"/>
        </g>
        <path id="Trazado_149-2" data-name="Trazado 149" d="M0,0,34.76,31.044,69.521,0Z" transform="translate(0 93.132)" fill="#ef8000"/>
        <g id="Grupo_105-2" data-name="Grupo 105" transform="translate(0 93.132)">
          <path id="Trazado_150-2" data-name="Trazado 150" d="M34.761,31.044V0L0,31.044Z" transform="translate(34.761)" fill="#fff"/>
          <path id="Trazado_151-2" data-name="Trazado 151" d="M0,31.044V0L34.761,31.044Z" fill="#fff"/>
        </g>
      </g>
      <g id="Grupo_183" data-name="Grupo 183" transform="translate(69.522 310.44) rotate(180)">
        <path id="Trazado_122-3" data-name="Trazado 122" d="M69.521,31.044,34.761,0,0,31.044Z" transform="translate(0 248.352)" fill="#fff"/>
        <g id="Grupo_87-3" data-name="Grupo 87" transform="translate(0 248.353)">
          <path id="Trazado_123-3" data-name="Trazado 123" d="M0,0V31.044L34.761,0Z" transform="translate(0 0)" fill="#ef8000"/>
          <path id="Trazado_124-3" data-name="Trazado 124" d="M34.761,0V31.044L0,0Z" transform="translate(34.761 0)" fill="#ef8000"/>
        </g>
        <path id="Trazado_125-3" data-name="Trazado 125" d="M0,0,34.76,31.044,69.521,0Z" transform="translate(0 279.396)" fill="#ef8000"/>
        <g id="Grupo_89-3" data-name="Grupo 89" transform="translate(0 279.396)">
          <path id="Trazado_126-3" data-name="Trazado 126" d="M34.761,31.044V0L0,31.044Z" transform="translate(34.761)" fill="#fff"/>
          <path id="Trazado_127-3" data-name="Trazado 127" d="M0,31.044V0L34.761,31.044Z" fill="#fff"/>
        </g>
        <path id="Trazado_128-3" data-name="Trazado 128" d="M69.521,31.044,34.761,0,0,31.044Z" transform="translate(0 186.264)" fill="#fff"/>
        <g id="Grupo_91-3" data-name="Grupo 91" transform="translate(0 186.264)">
          <path id="Trazado_129-3" data-name="Trazado 129" d="M0,0V31.044L34.761,0Z" fill="#ef8000"/>
          <path id="Trazado_130-3" data-name="Trazado 130" d="M34.761,0V31.044L0,0Z" transform="translate(34.761)" fill="#ef8000"/>
        </g>
        <path id="Trazado_131-3" data-name="Trazado 131" d="M69.521,31.044,34.761,0,0,31.044Z" transform="translate(0 124.176)" fill="#fff"/>
        <g id="Grupo_93-3" data-name="Grupo 93" transform="translate(0 124.176)">
          <path id="Trazado_132-3" data-name="Trazado 132" d="M0,0V31.044L34.761,0Z" transform="translate(0 0)" fill="#ef8000"/>
          <path id="Trazado_133-3" data-name="Trazado 133" d="M34.761,0V31.044L0,0Z" transform="translate(34.761 0)" fill="#ef8000"/>
        </g>
        <path id="Trazado_134-3" data-name="Trazado 134" d="M0,0,34.76,31.044,69.521,0Z" transform="translate(0 155.22)" fill="#ef8000"/>
        <g id="Grupo_95-3" data-name="Grupo 95" transform="translate(0 155.22)">
          <path id="Trazado_135-3" data-name="Trazado 135" d="M34.761,31.044V0L0,31.044Z" transform="translate(34.761)" fill="#fff"/>
          <path id="Trazado_136-3" data-name="Trazado 136" d="M0,31.044V0L34.761,31.044Z" fill="#fff"/>
        </g>
        <path id="Trazado_137-3" data-name="Trazado 137" d="M0,0,34.76,31.044,69.521,0Z" transform="translate(0 217.308)" fill="#ef8000"/>
        <g id="Grupo_97-3" data-name="Grupo 97" transform="translate(0 217.308)">
          <path id="Trazado_138-3" data-name="Trazado 138" d="M34.761,31.044V0L0,31.044Z" transform="translate(34.761)" fill="#fff"/>
          <path id="Trazado_139-3" data-name="Trazado 139" d="M0,31.044V0L34.761,31.044Z" fill="#fff"/>
        </g>
        <path id="Trazado_140-3" data-name="Trazado 140" d="M69.521,31.044,34.761,0,0,31.044Z" transform="translate(0 62.088)" fill="#fff"/>
        <g id="Grupo_99-3" data-name="Grupo 99" transform="translate(0 62.088)">
          <path id="Trazado_141-3" data-name="Trazado 141" d="M0,0V31.044L34.761,0Z" fill="#ef8000"/>
          <path id="Trazado_142-3" data-name="Trazado 142" d="M34.761,0V31.044L0,0Z" transform="translate(34.761)" fill="#ef8000"/>
        </g>
        <path id="Trazado_143-3" data-name="Trazado 143" d="M69.521,31.044,34.761,0,0,31.044Z" transform="translate(0 0)" fill="#fff"/>
        <g id="Grupo_101-3" data-name="Grupo 101" transform="translate(0 0)">
          <path id="Trazado_144-3" data-name="Trazado 144" d="M0,0V31.044L34.761,0Z" fill="#ef8000"/>
          <path id="Trazado_145-3" data-name="Trazado 145" d="M34.761,0V31.044L0,0Z" transform="translate(34.761)" fill="#ef8000"/>
        </g>
        <path id="Trazado_146-3" data-name="Trazado 146" d="M0,0,34.76,31.044,69.521,0Z" transform="translate(0 31.044)" fill="#ef8000"/>
        <g id="Grupo_103-3" data-name="Grupo 103" transform="translate(0 31.044)">
          <path id="Trazado_147-3" data-name="Trazado 147" d="M34.761,31.044V0L0,31.044Z" transform="translate(34.761 0)" fill="#fff"/>
          <path id="Trazado_148-3" data-name="Trazado 148" d="M0,31.044V0L34.761,31.044Z" transform="translate(0 0)" fill="#fff"/>
        </g>
        <path id="Trazado_149-3" data-name="Trazado 149" d="M0,0,34.76,31.044,69.521,0Z" transform="translate(0 93.132)" fill="#ef8000"/>
        <g id="Grupo_105-3" data-name="Grupo 105" transform="translate(0 93.132)">
          <path id="Trazado_150-3" data-name="Trazado 150" d="M34.761,31.044V0L0,31.044Z" transform="translate(34.761)" fill="#fff"/>
          <path id="Trazado_151-3" data-name="Trazado 151" d="M0,31.044V0L34.761,31.044Z" fill="#fff"/>
        </g>
      </g>
    </g>
    <g id="Grupo_186" data-name="Grupo 186" transform="translate(0 3831.761)">
      <g id="Grupo_183-2" data-name="Grupo 183" transform="translate(69.522 310.44) rotate(180)">
        <path id="Trazado_122-4" data-name="Trazado 122" d="M69.521,31.044,34.761,0,0,31.044Z" transform="translate(0 248.352)" fill="#fff"/>
        <g id="Grupo_87-4" data-name="Grupo 87" transform="translate(0 248.353)">
          <path id="Trazado_123-4" data-name="Trazado 123" d="M0,0V31.044L34.761,0Z" transform="translate(0 0)" fill="#ef8000"/>
          <path id="Trazado_124-4" data-name="Trazado 124" d="M34.761,0V31.044L0,0Z" transform="translate(34.761 0)" fill="#ef8000"/>
        </g>
        <path id="Trazado_125-4" data-name="Trazado 125" d="M0,0,34.76,31.044,69.521,0Z" transform="translate(0 279.396)" fill="#ef8000"/>
        <g id="Grupo_89-4" data-name="Grupo 89" transform="translate(0 279.396)">
          <path id="Trazado_126-4" data-name="Trazado 126" d="M34.761,31.044V0L0,31.044Z" transform="translate(34.761)" fill="#fff"/>
          <path id="Trazado_127-4" data-name="Trazado 127" d="M0,31.044V0L34.761,31.044Z" fill="#fff"/>
        </g>
        <path id="Trazado_128-4" data-name="Trazado 128" d="M69.521,31.044,34.761,0,0,31.044Z" transform="translate(0 186.264)" fill="#fff"/>
        <g id="Grupo_91-4" data-name="Grupo 91" transform="translate(0 186.264)">
          <path id="Trazado_129-4" data-name="Trazado 129" d="M0,0V31.044L34.761,0Z" fill="#ef8000"/>
          <path id="Trazado_130-4" data-name="Trazado 130" d="M34.761,0V31.044L0,0Z" transform="translate(34.761)" fill="#ef8000"/>
        </g>
        <path id="Trazado_131-4" data-name="Trazado 131" d="M69.521,31.044,34.761,0,0,31.044Z" transform="translate(0 124.176)" fill="#fff"/>
        <g id="Grupo_93-4" data-name="Grupo 93" transform="translate(0 124.176)">
          <path id="Trazado_132-4" data-name="Trazado 132" d="M0,0V31.044L34.761,0Z" transform="translate(0 0)" fill="#ef8000"/>
          <path id="Trazado_133-4" data-name="Trazado 133" d="M34.761,0V31.044L0,0Z" transform="translate(34.761 0)" fill="#ef8000"/>
        </g>
        <path id="Trazado_134-4" data-name="Trazado 134" d="M0,0,34.76,31.044,69.521,0Z" transform="translate(0 155.22)" fill="#ef8000"/>
        <g id="Grupo_95-4" data-name="Grupo 95" transform="translate(0 155.22)">
          <path id="Trazado_135-4" data-name="Trazado 135" d="M34.761,31.044V0L0,31.044Z" transform="translate(34.761)" fill="#fff"/>
          <path id="Trazado_136-4" data-name="Trazado 136" d="M0,31.044V0L34.761,31.044Z" fill="#fff"/>
        </g>
        <path id="Trazado_137-4" data-name="Trazado 137" d="M0,0,34.76,31.044,69.521,0Z" transform="translate(0 217.308)" fill="#ef8000"/>
        <g id="Grupo_97-4" data-name="Grupo 97" transform="translate(0 217.308)">
          <path id="Trazado_138-4" data-name="Trazado 138" d="M34.761,31.044V0L0,31.044Z" transform="translate(34.761)" fill="#fff"/>
          <path id="Trazado_139-4" data-name="Trazado 139" d="M0,31.044V0L34.761,31.044Z" fill="#fff"/>
        </g>
        <path id="Trazado_140-4" data-name="Trazado 140" d="M69.521,31.044,34.761,0,0,31.044Z" transform="translate(0 62.088)" fill="#fff"/>
        <g id="Grupo_99-4" data-name="Grupo 99" transform="translate(0 62.088)">
          <path id="Trazado_141-4" data-name="Trazado 141" d="M0,0V31.044L34.761,0Z" fill="#ef8000"/>
          <path id="Trazado_142-4" data-name="Trazado 142" d="M34.761,0V31.044L0,0Z" transform="translate(34.761)" fill="#ef8000"/>
        </g>
        <path id="Trazado_143-4" data-name="Trazado 143" d="M69.521,31.044,34.761,0,0,31.044Z" transform="translate(0 0)" fill="#fff"/>
        <g id="Grupo_101-4" data-name="Grupo 101" transform="translate(0 0)">
          <path id="Trazado_144-4" data-name="Trazado 144" d="M0,0V31.044L34.761,0Z" fill="#ef8000"/>
          <path id="Trazado_145-4" data-name="Trazado 145" d="M34.761,0V31.044L0,0Z" transform="translate(34.761)" fill="#ef8000"/>
        </g>
        <path id="Trazado_146-4" data-name="Trazado 146" d="M0,0,34.76,31.044,69.521,0Z" transform="translate(0 31.044)" fill="#ef8000"/>
        <g id="Grupo_103-4" data-name="Grupo 103" transform="translate(0 31.044)">
          <path id="Trazado_147-4" data-name="Trazado 147" d="M34.761,31.044V0L0,31.044Z" transform="translate(34.761 0)" fill="#fff"/>
          <path id="Trazado_148-4" data-name="Trazado 148" d="M0,31.044V0L34.761,31.044Z" transform="translate(0 0)" fill="#fff"/>
        </g>
        <path id="Trazado_149-4" data-name="Trazado 149" d="M0,0,34.76,31.044,69.521,0Z" transform="translate(0 93.132)" fill="#ef8000"/>
        <g id="Grupo_105-4" data-name="Grupo 105" transform="translate(0 93.132)">
          <path id="Trazado_150-4" data-name="Trazado 150" d="M34.761,31.044V0L0,31.044Z" transform="translate(34.761)" fill="#fff"/>
          <path id="Trazado_151-4" data-name="Trazado 151" d="M0,31.044V0L34.761,31.044Z" fill="#fff"/>
        </g>
      </g>
    </g>
    <g id="Grupo_188" data-name="Grupo 188" transform="translate(0 3211.761)">
      <g id="Grupo_182-3" data-name="Grupo 182" transform="translate(69.522 620.238) rotate(180)">
        <path id="Trazado_122-5" data-name="Trazado 122" d="M69.521,31.044,34.761,0,0,31.044Z" transform="translate(0 248.352)" fill="#fff"/>
        <g id="Grupo_87-5" data-name="Grupo 87" transform="translate(0 248.353)">
          <path id="Trazado_123-5" data-name="Trazado 123" d="M0,0V31.044L34.761,0Z" transform="translate(0 0)" fill="#ef8000"/>
          <path id="Trazado_124-5" data-name="Trazado 124" d="M34.761,0V31.044L0,0Z" transform="translate(34.761 0)" fill="#ef8000"/>
        </g>
        <path id="Trazado_125-5" data-name="Trazado 125" d="M0,0,34.76,31.044,69.521,0Z" transform="translate(0 279.396)" fill="#ef8000"/>
        <g id="Grupo_89-5" data-name="Grupo 89" transform="translate(0 279.396)">
          <path id="Trazado_126-5" data-name="Trazado 126" d="M34.761,31.044V0L0,31.044Z" transform="translate(34.761)" fill="#fff"/>
          <path id="Trazado_127-5" data-name="Trazado 127" d="M0,31.044V0L34.761,31.044Z" fill="#fff"/>
        </g>
        <path id="Trazado_128-5" data-name="Trazado 128" d="M69.521,31.044,34.761,0,0,31.044Z" transform="translate(0 186.264)" fill="#fff"/>
        <g id="Grupo_91-5" data-name="Grupo 91" transform="translate(0 186.264)">
          <path id="Trazado_129-5" data-name="Trazado 129" d="M0,0V31.044L34.761,0Z" fill="#ef8000"/>
          <path id="Trazado_130-5" data-name="Trazado 130" d="M34.761,0V31.044L0,0Z" transform="translate(34.761)" fill="#ef8000"/>
        </g>
        <path id="Trazado_131-5" data-name="Trazado 131" d="M69.521,31.044,34.761,0,0,31.044Z" transform="translate(0 124.176)" fill="#fff"/>
        <g id="Grupo_93-5" data-name="Grupo 93" transform="translate(0 124.176)">
          <path id="Trazado_132-5" data-name="Trazado 132" d="M0,0V31.044L34.761,0Z" transform="translate(0 0)" fill="#ef8000"/>
          <path id="Trazado_133-5" data-name="Trazado 133" d="M34.761,0V31.044L0,0Z" transform="translate(34.761 0)" fill="#ef8000"/>
        </g>
        <path id="Trazado_134-5" data-name="Trazado 134" d="M0,0,34.76,31.044,69.521,0Z" transform="translate(0 155.22)" fill="#ef8000"/>
        <g id="Grupo_95-5" data-name="Grupo 95" transform="translate(0 155.22)">
          <path id="Trazado_135-5" data-name="Trazado 135" d="M34.761,31.044V0L0,31.044Z" transform="translate(34.761)" fill="#fff"/>
          <path id="Trazado_136-5" data-name="Trazado 136" d="M0,31.044V0L34.761,31.044Z" fill="#fff"/>
        </g>
        <path id="Trazado_137-5" data-name="Trazado 137" d="M0,0,34.76,31.044,69.521,0Z" transform="translate(0 217.308)" fill="#ef8000"/>
        <g id="Grupo_97-5" data-name="Grupo 97" transform="translate(0 217.308)">
          <path id="Trazado_138-5" data-name="Trazado 138" d="M34.761,31.044V0L0,31.044Z" transform="translate(34.761)" fill="#fff"/>
          <path id="Trazado_139-5" data-name="Trazado 139" d="M0,31.044V0L34.761,31.044Z" fill="#fff"/>
        </g>
        <path id="Trazado_140-5" data-name="Trazado 140" d="M69.521,31.044,34.761,0,0,31.044Z" transform="translate(0 62.088)" fill="#fff"/>
        <g id="Grupo_99-5" data-name="Grupo 99" transform="translate(0 62.088)">
          <path id="Trazado_141-5" data-name="Trazado 141" d="M0,0V31.044L34.761,0Z" fill="#ef8000"/>
          <path id="Trazado_142-5" data-name="Trazado 142" d="M34.761,0V31.044L0,0Z" transform="translate(34.761)" fill="#ef8000"/>
        </g>
        <path id="Trazado_143-5" data-name="Trazado 143" d="M69.521,31.044,34.761,0,0,31.044Z" transform="translate(0 0)" fill="#fff"/>
        <g id="Grupo_101-5" data-name="Grupo 101" transform="translate(0 0)">
          <path id="Trazado_144-5" data-name="Trazado 144" d="M0,0V31.044L34.761,0Z" fill="#ef8000"/>
          <path id="Trazado_145-5" data-name="Trazado 145" d="M34.761,0V31.044L0,0Z" transform="translate(34.761)" fill="#ef8000"/>
        </g>
        <path id="Trazado_146-5" data-name="Trazado 146" d="M0,0,34.76,31.044,69.521,0Z" transform="translate(0 31.044)" fill="#ef8000"/>
        <g id="Grupo_103-5" data-name="Grupo 103" transform="translate(0 31.044)">
          <path id="Trazado_147-5" data-name="Trazado 147" d="M34.761,31.044V0L0,31.044Z" transform="translate(34.761 0)" fill="#fff"/>
          <path id="Trazado_148-5" data-name="Trazado 148" d="M0,31.044V0L34.761,31.044Z" transform="translate(0 0)" fill="#fff"/>
        </g>
        <path id="Trazado_149-5" data-name="Trazado 149" d="M0,0,34.76,31.044,69.521,0Z" transform="translate(0 93.132)" fill="#ef8000"/>
        <g id="Grupo_105-5" data-name="Grupo 105" transform="translate(0 93.132)">
          <path id="Trazado_150-5" data-name="Trazado 150" d="M34.761,31.044V0L0,31.044Z" transform="translate(34.761)" fill="#fff"/>
          <path id="Trazado_151-5" data-name="Trazado 151" d="M0,31.044V0L34.761,31.044Z" fill="#fff"/>
        </g>
      </g>
      <g id="Grupo_183-3" data-name="Grupo 183" transform="translate(69.522 310.44) rotate(180)">
        <path id="Trazado_122-6" data-name="Trazado 122" d="M69.521,31.044,34.761,0,0,31.044Z" transform="translate(0 248.352)" fill="#fff"/>
        <g id="Grupo_87-6" data-name="Grupo 87" transform="translate(0 248.353)">
          <path id="Trazado_123-6" data-name="Trazado 123" d="M0,0V31.044L34.761,0Z" transform="translate(0 0)" fill="#ef8000"/>
          <path id="Trazado_124-6" data-name="Trazado 124" d="M34.761,0V31.044L0,0Z" transform="translate(34.761 0)" fill="#ef8000"/>
        </g>
        <path id="Trazado_125-6" data-name="Trazado 125" d="M0,0,34.76,31.044,69.521,0Z" transform="translate(0 279.396)" fill="#ef8000"/>
        <g id="Grupo_89-6" data-name="Grupo 89" transform="translate(0 279.396)">
          <path id="Trazado_126-6" data-name="Trazado 126" d="M34.761,31.044V0L0,31.044Z" transform="translate(34.761)" fill="#fff"/>
          <path id="Trazado_127-6" data-name="Trazado 127" d="M0,31.044V0L34.761,31.044Z" fill="#fff"/>
        </g>
        <path id="Trazado_128-6" data-name="Trazado 128" d="M69.521,31.044,34.761,0,0,31.044Z" transform="translate(0 186.264)" fill="#fff"/>
        <g id="Grupo_91-6" data-name="Grupo 91" transform="translate(0 186.264)">
          <path id="Trazado_129-6" data-name="Trazado 129" d="M0,0V31.044L34.761,0Z" fill="#ef8000"/>
          <path id="Trazado_130-6" data-name="Trazado 130" d="M34.761,0V31.044L0,0Z" transform="translate(34.761)" fill="#ef8000"/>
        </g>
        <path id="Trazado_131-6" data-name="Trazado 131" d="M69.521,31.044,34.761,0,0,31.044Z" transform="translate(0 124.176)" fill="#fff"/>
        <g id="Grupo_93-6" data-name="Grupo 93" transform="translate(0 124.176)">
          <path id="Trazado_132-6" data-name="Trazado 132" d="M0,0V31.044L34.761,0Z" transform="translate(0 0)" fill="#ef8000"/>
          <path id="Trazado_133-6" data-name="Trazado 133" d="M34.761,0V31.044L0,0Z" transform="translate(34.761 0)" fill="#ef8000"/>
        </g>
        <path id="Trazado_134-6" data-name="Trazado 134" d="M0,0,34.76,31.044,69.521,0Z" transform="translate(0 155.22)" fill="#ef8000"/>
        <g id="Grupo_95-6" data-name="Grupo 95" transform="translate(0 155.22)">
          <path id="Trazado_135-6" data-name="Trazado 135" d="M34.761,31.044V0L0,31.044Z" transform="translate(34.761)" fill="#fff"/>
          <path id="Trazado_136-6" data-name="Trazado 136" d="M0,31.044V0L34.761,31.044Z" fill="#fff"/>
        </g>
        <path id="Trazado_137-6" data-name="Trazado 137" d="M0,0,34.76,31.044,69.521,0Z" transform="translate(0 217.308)" fill="#ef8000"/>
        <g id="Grupo_97-6" data-name="Grupo 97" transform="translate(0 217.308)">
          <path id="Trazado_138-6" data-name="Trazado 138" d="M34.761,31.044V0L0,31.044Z" transform="translate(34.761)" fill="#fff"/>
          <path id="Trazado_139-6" data-name="Trazado 139" d="M0,31.044V0L34.761,31.044Z" fill="#fff"/>
        </g>
        <path id="Trazado_140-6" data-name="Trazado 140" d="M69.521,31.044,34.761,0,0,31.044Z" transform="translate(0 62.088)" fill="#fff"/>
        <g id="Grupo_99-6" data-name="Grupo 99" transform="translate(0 62.088)">
          <path id="Trazado_141-6" data-name="Trazado 141" d="M0,0V31.044L34.761,0Z" fill="#ef8000"/>
          <path id="Trazado_142-6" data-name="Trazado 142" d="M34.761,0V31.044L0,0Z" transform="translate(34.761)" fill="#ef8000"/>
        </g>
        <path id="Trazado_143-6" data-name="Trazado 143" d="M69.521,31.044,34.761,0,0,31.044Z" transform="translate(0 0)" fill="#fff"/>
        <g id="Grupo_101-6" data-name="Grupo 101" transform="translate(0 0)">
          <path id="Trazado_144-6" data-name="Trazado 144" d="M0,0V31.044L34.761,0Z" fill="#ef8000"/>
          <path id="Trazado_145-6" data-name="Trazado 145" d="M34.761,0V31.044L0,0Z" transform="translate(34.761)" fill="#ef8000"/>
        </g>
        <path id="Trazado_146-6" data-name="Trazado 146" d="M0,0,34.76,31.044,69.521,0Z" transform="translate(0 31.044)" fill="#ef8000"/>
        <g id="Grupo_103-6" data-name="Grupo 103" transform="translate(0 31.044)">
          <path id="Trazado_147-6" data-name="Trazado 147" d="M34.761,31.044V0L0,31.044Z" transform="translate(34.761 0)" fill="#fff"/>
          <path id="Trazado_148-6" data-name="Trazado 148" d="M0,31.044V0L34.761,31.044Z" transform="translate(0 0)" fill="#fff"/>
        </g>
        <path id="Trazado_149-6" data-name="Trazado 149" d="M0,0,34.76,31.044,69.521,0Z" transform="translate(0 93.132)" fill="#ef8000"/>
        <g id="Grupo_105-6" data-name="Grupo 105" transform="translate(0 93.132)">
          <path id="Trazado_150-6" data-name="Trazado 150" d="M34.761,31.044V0L0,31.044Z" transform="translate(34.761)" fill="#fff"/>
          <path id="Trazado_151-6" data-name="Trazado 151" d="M0,31.044V0L34.761,31.044Z" fill="#fff"/>
        </g>
      </g>
    </g>
  </g>
</svg>
