<svg xmlns="http://www.w3.org/2000/svg" width="40.32" height="40.32" viewBox="0 0 40.32 40.32">
  <g id="Grupo_314" data-name="Grupo 314" transform="translate(-1678 -914)">
    <g id="Grupo_311" data-name="Grupo 311">
      <g id="Trazado_257" data-name="Trazado 257" transform="translate(1698.16 914) rotate(45)" fill="rgba(255,255,255,0)">
        <path d="M 28.36069869995117 28.36069869995117 L 0.14999820291996 28.36069869995117 L 0.14999820291996 0.14999820291996 L 28.36069869995117 0.14999820291996 L 28.36069869995117 28.36069869995117 Z" stroke="none"/>
        <path d="M 0.2999973297119141 0.2999973297119141 L 0.2999973297119141 28.2106990814209 L 28.2106990814209 28.2106990814209 L 28.2106990814209 0.2999973297119141 L 0.2999973297119141 0.2999973297119141 M -1.9073486328125e-06 -1.9073486328125e-06 L 28.51069831848145 -1.9073486328125e-06 L 28.51069831848145 28.51069831848145 L -1.9073486328125e-06 28.51069831848145 L -1.9073486328125e-06 -1.9073486328125e-06 Z" stroke="none" fill="#3b3c43"/>
      </g>
      <g id="Grupo_5" data-name="Grupo 5" transform="translate(1704.827 938.263) rotate(180)">
        <path id="Trazado_9" data-name="Trazado 9" d="M0,3.473,3.933,0,7.815,3.473" transform="translate(0 7.815) rotate(-90)" fill="none" stroke="#3b3c43" stroke-width="2"/>
        <path id="Trazado_11" data-name="Trazado 11" d="M151.572,906.161H139" transform="translate(-139 -902.351)" fill="none" stroke="#3b3c43" stroke-width="2"/>
      </g>
    </g>
  </g>
</svg>
