<svg xmlns="http://www.w3.org/2000/svg" width="232" height="39.675" viewBox="0 0 232 39.675">
  <g id="Grupo_310" data-name="Grupo 310" transform="translate(-139 -73.55)">
    <g id="Grupo_1" data-name="Grupo 1" transform="translate(-173.123 -275.308)">
      <path id="Trazado_1" data-name="Trazado 1" d="M337.2,349.674l-2.458,3.254a23.566,23.566,0,0,0-10.579-2.353h-5.1V368.8h2.641a77.2,77.2,0,0,0,9.449-.473v1.846a77.212,77.212,0,0,0-9.449-.473h-2.641v8.03a73.129,73.129,0,0,0,.518,9.726h-7.464a81.873,81.873,0,0,0,.519-9.726V359.4a81.754,81.754,0,0,0-.519-9.726Z" transform="translate(0 0.13)" fill="#fff"/>
      <path id="Trazado_2" data-name="Trazado 2" d="M333.757,368.69c0-11.94,9.35-19.832,21.821-19.832,12.372,0,21.769,7.892,21.769,19.832,0,12-9.4,19.843-21.769,19.843C343.107,388.533,333.757,380.687,333.757,368.69Zm36.6,0c0-9.91-5.289-18.931-14.784-18.931-9.587,0-14.83,9.021-14.83,18.931,0,9.968,5.244,18.943,14.83,18.943C365.073,387.633,370.362,378.657,370.362,368.69Z" transform="translate(3.447 0)" fill="#fff"/>
      <path id="Trazado_3" data-name="Trazado 3" d="M403.587,376.97c0,8.075-6.847,10.486-14.923,10.486h-13.51a94.492,94.492,0,0,0,.428-9.726V359.4a94.361,94.361,0,0,0-.428-9.726h12.8c6.473,0,12.99,1.131,12.99,8.457,0,4.487-2.5,7.082-8.173,8.028C398.816,367.2,403.587,370.221,403.587,376.97Zm-21.539-11.284h3.922c6.137,0,8.405-2.641,8.405-7.555,0-5.815-4.672-7.557-8.832-7.557h-3.5Zm14.5,11.284c0-8.5-6.092-10.383-10.107-10.383h-4.4v19.97h3.968C391.64,386.557,396.549,384.1,396.549,376.97Z" transform="translate(10.043 0.13)" fill="#fff"/>
      <path id="Trazado_4" data-name="Trazado 4" d="M428.2,349.674l-2.458,3.254a23.551,23.551,0,0,0-10.579-2.353h-4.153V367.06h2.786a77.093,77.093,0,0,0,9.443-.473v1.834a77.093,77.093,0,0,0-9.443-.473h-2.786v18.608h4.672a35.689,35.689,0,0,0,13.648-2.262l-1.558,3.161H404.062a81.873,81.873,0,0,0,.519-9.726V359.4a81.754,81.754,0,0,0-.519-9.726Z" transform="translate(14.649 0.13)" fill="#fff"/>
      <path id="Trazado_5" data-name="Trazado 5" d="M461.881,369.4v7.741a83.76,83.76,0,0,0,.565,10.441h-2.457a83.778,83.778,0,0,0,.566-10.441v-1.88c-1.841,8.169-6.611,13.267-15.252,13.267-11.242,0-18.752-8.549-18.752-20.3s8.594-19.37,19.318-19.37c7.793,0,12.99,4.061,16.2,10.3l-6.229,1.7c-1.281-6.092-4.206-11.1-9.968-11.1-7.7,0-12.327,8.075-12.327,18.043,0,10.2,4.627,18.7,13.694,18.7,8.029,0,12.846-6.565,13.32-17.1h-1.933a23.254,23.254,0,0,0-10.579,2.411l-2.458-3.311h20.12v.9Z" transform="translate(18.232 0)" fill="#fff"/>
      <path id="Trazado_6" data-name="Trazado 6" d="M463,368.69c0-11.94,9.35-19.832,21.821-19.832,12.374,0,21.77,7.892,21.77,19.832,0,12-9.4,19.843-21.77,19.843C472.354,388.533,463,380.687,463,368.69Zm36.6,0c0-9.91-5.289-18.931-14.784-18.931-9.586,0-14.83,9.021-14.83,18.931,0,9.968,5.244,18.943,14.83,18.943C494.32,387.633,499.609,378.657,499.609,368.69Z" transform="translate(24.04 0)" fill="#fff"/>
      <path id="Trazado_7" data-name="Trazado 7" d="M502.911,378.765l5.408-4.829,5.406,4.829-5.406,4.825Z" transform="translate(30.399 3.996)" fill="#ef8000"/>
    </g>
  </g>
</svg>
