<svg xmlns="http://www.w3.org/2000/svg" width="60.119" height="60.119" viewBox="0 0 60.119 60.119">
  <g id="Grupo_314" data-name="Grupo 314" transform="translate(-1428.381 -2843)">
    <g id="Rectángulo_78" data-name="Rectángulo 78" transform="translate(1458.44 2903.119) rotate(-135)" fill="none" stroke="#ef8000" stroke-width="0.5">
      <rect width="42.511" height="42.511" stroke="none"/>
      <rect x="0.25" y="0.25" width="42.011" height="42.011" fill="none"/>
    </g>
    <g id="twitter" transform="translate(1446.381 2814.67)">
      <g id="Grupo_191" data-name="Grupo 191" transform="translate(0 48)">
        <path id="Trazado_238" data-name="Trazado 238" d="M24.4,50.347a10.429,10.429,0,0,1-2.882.79,4.974,4.974,0,0,0,2.2-2.765,10,10,0,0,1-3.172,1.211A5,5,0,0,0,11.894,53a5.151,5.151,0,0,0,.116,1.141A14.159,14.159,0,0,1,1.7,48.912,5,5,0,0,0,3.236,55.6a4.94,4.94,0,0,1-2.26-.616v.055a5.025,5.025,0,0,0,4.008,4.915,4.993,4.993,0,0,1-1.312.165,4.423,4.423,0,0,1-.947-.085A5.05,5.05,0,0,0,7.4,63.516a10.051,10.051,0,0,1-6.2,2.134A9.367,9.367,0,0,1,0,65.58a14.083,14.083,0,0,0,7.674,2.245A14.139,14.139,0,0,0,21.912,53.591c0-.221-.008-.435-.018-.647A9.979,9.979,0,0,0,24.4,50.347Z" transform="translate(0 -48)" fill="#ef8000"/>
      </g>
    </g>
  </g>
</svg>
